<svg xmlns="http://www.w3.org/2000/svg" width="486" height="121" viewBox="0 0 486 121">
  <g id="Groupe_6" data-name="Groupe 6" transform="translate(-1447 -632)">
    <g id="Rectangle_17" data-name="Rectangle 17" transform="translate(1548 665)" fill="#fff" stroke="#fff" stroke-width="1">
      <rect width="84" height="22" rx="11" stroke="none"/>
      <rect x="0.5" y="0.5" width="83" height="21" rx="10.5" fill="none"/>
    </g>
    <g id="Rectangle_19" data-name="Rectangle 19" transform="translate(1685 665)" fill="#fff" stroke="#fff" stroke-width="1">
      <rect width="113" height="22" rx="11" stroke="none"/>
      <rect x="0.5" y="0.5" width="112" height="21" rx="10.5" fill="none"/>
    </g>
    <g id="Rectangle_20" data-name="Rectangle 20" transform="translate(1447 698)" fill="none" stroke="#fff" stroke-width="1">
      <rect width="73" height="22" rx="11" stroke="none"/>
      <rect x="0.5" y="0.5" width="72" height="21" rx="10.5" fill="none"/>
    </g>
    <g id="Rectangle_22" data-name="Rectangle 22" transform="translate(1625 698)" fill="none" stroke="#fff" stroke-width="1">
      <rect width="99" height="22" rx="11" stroke="none"/>
      <rect x="0.5" y="0.5" width="98" height="21" rx="10.5" fill="none"/>
    </g>
    <g id="Rectangle_23" data-name="Rectangle 23" transform="translate(1495 731)" fill="#fff" stroke="#fff" stroke-width="1">
      <rect width="74" height="22" rx="11" stroke="none"/>
      <rect x="0.5" y="0.5" width="73" height="21" rx="10.5" fill="none"/>
    </g>
    <g id="Rectangle_25" data-name="Rectangle 25" transform="translate(1685 731)" fill="#fff" stroke="#fff" stroke-width="1">
      <rect width="135" height="22" rx="11" stroke="none"/>
      <rect x="0.5" y="0.5" width="134" height="21" rx="10.5" fill="none"/>
    </g>
    <g id="Rectangle_26" data-name="Rectangle 26" transform="translate(1484 632)" fill="none" stroke="#fff" stroke-width="1">
      <rect width="57" height="22" rx="11" stroke="none"/>
      <rect x="0.5" y="0.5" width="56" height="21" rx="10.5" fill="none"/>
    </g>
    <g id="Rectangle_28" data-name="Rectangle 28" transform="translate(1606 632)" fill="#fff" stroke="#fff" stroke-width="1">
      <rect width="99" height="22" rx="11" stroke="none"/>
      <rect x="0.5" y="0.5" width="98" height="21" rx="10.5" fill="none"/>
    </g>
    <g id="Rectangle_29" data-name="Rectangle 29" transform="translate(1835 665)" fill="none" stroke="#fff" stroke-width="1">
      <rect width="98" height="22" rx="11" stroke="none"/>
      <rect x="0.5" y="0.5" width="97" height="21" rx="10.5" fill="none"/>
    </g>
    <g id="Rectangle_30" data-name="Rectangle 30" transform="translate(1801 698)" fill="#fff" stroke="#fff" stroke-width="1">
      <rect width="132" height="22" rx="11" stroke="none"/>
      <rect x="0.5" y="0.5" width="131" height="21" rx="10.5" fill="none"/>
    </g>
    <g id="Rectangle_31" data-name="Rectangle 31" transform="translate(1859 731)" fill="none" stroke="#fff" stroke-width="1">
      <rect width="74" height="22" rx="11" stroke="none"/>
      <rect x="0.5" y="0.5" width="73" height="21" rx="10.5" fill="none"/>
    </g>
    <g id="Rectangle_32" data-name="Rectangle 32" transform="translate(1734 632)" fill="none" stroke="#fff" stroke-width="1">
      <rect width="162" height="22" rx="11" stroke="none"/>
      <rect x="0.5" y="0.5" width="161" height="21" rx="10.5" fill="none"/>
    </g>
  </g>
</svg>
