<svg xmlns="http://www.w3.org/2000/svg" width="486" height="121" viewBox="0 0 486 121">
  <g id="Groupe_7" data-name="Groupe 7" transform="translate(15 -192)">
    <g id="Rectangle_34" data-name="Rectangle 34" transform="translate(323 247) rotate(180)" fill="#fff" stroke="#fff" stroke-width="1">
      <rect width="164" height="22" rx="11" stroke="none"/>
      <rect x="0.5" y="0.5" width="163" height="21" rx="10.5" fill="none"/>
    </g>
    <g id="Rectangle_35" data-name="Rectangle 35" transform="translate(471 247) rotate(180)" fill="none" stroke="#fff" stroke-width="1">
      <rect width="73" height="22" rx="11" stroke="none"/>
      <rect x="0.5" y="0.5" width="72" height="21" rx="10.5" fill="none"/>
    </g>
    <g id="Rectangle_36" data-name="Rectangle 36" transform="translate(219 280) rotate(180)" fill="none" stroke="#fff" stroke-width="1">
      <rect width="76" height="22" rx="11" stroke="none"/>
      <rect x="0.5" y="0.5" width="75" height="21" rx="10.5" fill="none"/>
    </g>
    <g id="Rectangle_37" data-name="Rectangle 37" transform="translate(407 214) rotate(180)" fill="#fff" stroke="#fff" stroke-width="1">
      <rect width="112" height="22" rx="11" stroke="none"/>
      <rect x="0.5" y="0.5" width="111" height="21" rx="10.5" fill="none"/>
    </g>
    <g id="Rectangle_38" data-name="Rectangle 38" transform="translate(233 214) rotate(180)" fill="#fff" stroke="#fff" stroke-width="1">
      <rect width="135" height="22" rx="11" stroke="none"/>
      <rect x="0.5" y="0.5" width="134" height="21" rx="10.5" fill="none"/>
    </g>
    <g id="Rectangle_39" data-name="Rectangle 39" transform="translate(414 280) rotate(180)" fill="#fff" stroke="#fff" stroke-width="1">
      <rect width="85" height="22" rx="11" stroke="none"/>
      <rect x="0.5" y="0.5" width="84" height="21" rx="10.5" fill="none"/>
    </g>
    <g id="Rectangle_40" data-name="Rectangle 40" transform="translate(348 313) rotate(180)" fill="none" stroke="#fff" stroke-width="1">
      <rect width="68" height="22" rx="11" stroke="none"/>
      <rect x="0.5" y="0.5" width="67" height="21" rx="10.5" fill="none"/>
    </g>
    <g id="Rectangle_41" data-name="Rectangle 41" transform="translate(84 280) rotate(180)" fill="none" stroke="#fff" stroke-width="1">
      <rect width="99" height="22" rx="11" stroke="none"/>
      <rect x="0.5" y="0.5" width="98" height="21" rx="10.5" fill="none"/>
    </g>
    <g id="Rectangle_42" data-name="Rectangle 42" transform="translate(107 247) rotate(180)" fill="#fff" stroke="#fff" stroke-width="1">
      <rect width="122" height="22" rx="11" stroke="none"/>
      <rect x="0.5" y="0.5" width="121" height="21" rx="10.5" fill="none"/>
    </g>
    <g id="Rectangle_43" data-name="Rectangle 43" transform="translate(40 214) rotate(180)" fill="none" stroke="#fff" stroke-width="1">
      <rect width="55" height="22" rx="11" stroke="none"/>
      <rect x="0.5" y="0.5" width="54" height="21" rx="10.5" fill="none"/>
    </g>
    <g id="Rectangle_44" data-name="Rectangle 44" transform="translate(208 313) rotate(180)" fill="#fff" stroke="#fff" stroke-width="1">
      <rect width="162" height="22" rx="11" stroke="none"/>
      <rect x="0.5" y="0.5" width="161" height="21" rx="10.5" fill="none"/>
    </g>
  </g>
</svg>
